<?xml version="1.0" encoding="UTF-8" ?>
<!DOCTYPE svg PUBLIC "-//W3C//DTD SVG 1.1//EN" "http://www.w3.org/Graphics/SVG/1.1/DTD/svg11.dtd">
<svg width="280pt" height="70pt" viewBox="0 0 280 70" version="1.1" xmlns="http://www.w3.org/2000/svg">
<g id="#13181cff">
<path fill="#ffffff" opacity="1.00" d=" M 62.62 7.60 C 69.57 6.39 76.75 6.74 83.76 7.25 C 90.43 7.70 94.39 16.38 90.84 21.80 C 85.36 24.50 78.69 21.61 73.06 24.06 C 70.74 31.43 72.45 39.39 72.02 47.00 C 73.35 47.00 74.69 46.99 76.03 46.99 C 76.23 40.71 74.97 34.12 77.04 28.06 C 81.38 26.29 86.62 26.27 90.95 28.07 C 93.07 34.47 91.70 41.41 92.10 48.04 C 92.29 53.19 91.96 60.21 86.11 62.15 C 77.21 64.32 67.94 62.86 59.00 61.67 C 50.32 62.83 41.37 64.19 32.68 62.39 C 29.00 60.89 27.67 56.76 27.82 53.08 C 27.76 47.09 27.31 39.64 32.62 35.58 C 39.58 31.06 48.55 32.72 55.97 35.13 C 56.08 28.79 55.66 22.44 56.12 16.11 C 56.31 12.29 58.77 8.52 62.62 7.60 M 38.60 37.53 C 31.05 39.87 31.23 49.30 32.23 55.65 C 32.62 59.41 37.20 58.86 39.94 59.12 C 44.89 58.97 50.20 59.87 54.88 57.89 C 56.87 53.48 56.42 48.23 55.44 43.61 C 53.40 36.59 44.56 35.83 38.60 37.53 Z" />
<path fill="#ffffff" opacity="1.00" d=" M 102.63 7.59 C 107.66 6.45 112.88 7.07 118.00 6.90 C 122.31 7.05 126.84 6.42 130.95 8.03 C 132.70 12.38 132.73 17.61 130.94 21.96 C 124.87 24.03 118.29 22.77 112.00 22.96 C 112.00 24.32 112.00 25.68 112.00 27.04 C 118.29 27.22 124.87 25.97 130.94 28.04 C 132.68 32.36 132.79 37.62 130.90 41.91 C 124.89 44.11 118.27 42.73 112.00 42.96 C 112.00 44.32 112.00 45.68 112.00 47.04 C 118.29 47.22 124.87 45.97 130.94 48.04 C 132.71 52.38 132.72 57.62 130.93 61.96 C 125.53 63.91 119.62 62.79 114.00 63.10 C 108.91 62.87 102.90 63.98 98.77 60.23 C 95.24 56.40 96.03 50.79 95.91 46.01 C 96.25 36.35 95.71 26.68 96.04 17.02 C 96.05 12.91 98.41 8.60 102.63 7.59 Z" />
<path fill="#ffffff" opacity="1.00" d=" M 142.62 7.60 C 147.34 6.52 152.24 6.94 157.05 6.86 C 161.19 6.99 165.98 6.69 169.23 9.77 C 172.31 13.02 172.05 17.80 172.10 21.96 C 171.94 32.32 171.96 42.69 172.11 53.05 C 172.02 56.01 172.23 59.16 170.93 61.91 C 166.63 63.75 161.36 63.73 157.06 61.92 C 154.94 55.88 156.24 49.28 156.04 43.00 C 154.68 43.00 153.32 43.00 151.96 43.00 C 151.77 49.29 153.04 55.88 150.95 61.94 C 146.63 63.71 141.37 63.75 137.06 61.92 C 135.46 58.18 136.01 53.97 135.91 50.01 C 136.19 39.33 135.82 28.65 135.98 17.97 C 135.84 13.60 138.00 8.67 142.62 7.60 M 152.00 23.00 C 151.22 26.44 152.56 27.78 156.00 27.00 C 156.78 23.56 155.44 22.23 152.00 23.00 Z" />
<path fill="#ffffff" opacity="1.00" d=" M 178.56 7.50 C 185.97 6.35 193.55 7.06 201.03 6.99 C 205.41 6.84 210.33 9.01 211.40 13.63 C 212.55 19.32 212.20 25.22 212.00 31.00 C 212.10 33.86 209.98 35.94 208.31 37.99 C 209.96 40.07 212.10 42.13 212.02 44.99 C 212.12 50.60 212.84 56.53 210.93 61.92 C 206.63 63.73 201.36 63.75 197.08 61.91 C 194.90 55.88 196.26 49.27 196.04 43.00 C 194.68 43.00 193.32 43.00 191.96 43.00 C 191.75 49.28 193.08 55.88 190.93 61.91 C 186.63 63.75 181.37 63.71 177.05 61.93 C 175.58 58.50 175.98 54.66 175.90 51.02 C 176.20 38.36 175.81 25.68 176.00 13.02 C 176.36 11.10 175.92 7.75 178.56 7.50 M 192.00 23.00 C 191.23 26.44 192.55 27.78 196.00 27.00 C 196.78 23.55 195.44 22.23 192.00 23.00 Z" />
<path fill="#ffffff" opacity="1.00" d=" M 222.62 7.59 C 227.99 6.41 233.55 7.09 239.01 6.90 C 242.97 7.04 247.17 6.46 250.92 8.06 C 252.73 12.36 252.74 17.63 250.91 21.93 C 244.88 24.08 238.28 22.74 232.00 22.97 C 232.00 24.30 231.99 25.64 231.99 26.97 C 238.48 27.11 248.19 25.21 251.14 32.88 C 252.82 39.99 252.18 47.51 251.75 54.76 C 251.36 60.58 245.32 63.53 240.06 63.05 C 232.44 62.67 224.47 64.19 217.09 61.93 C 215.26 57.64 215.25 52.36 217.09 48.07 C 223.12 45.91 229.72 47.26 236.00 47.03 C 236.00 45.70 236.00 44.36 236.01 43.03 C 230.28 42.80 223.51 44.35 218.77 40.24 C 214.52 35.18 216.26 28.01 215.86 21.95 C 215.63 16.56 216.26 9.14 222.62 7.59 Z" />
<path fill="#ffffff" opacity="1.00" d=" M 36.00 51.00 C 39.44 50.22 40.78 51.56 40.00 55.00 C 36.56 55.78 35.22 54.44 36.00 51.00 Z" />
<path fill="#ffffff" opacity="1.00" d=" M 48.00 51.00 C 51.44 50.23 52.78 51.55 52.00 55.00 C 48.55 55.78 47.23 54.44 48.00 51.00 Z" />
</g>
</svg>
